HIERARCHY
ROOT Hips
{
	OFFSET 0.000000 0.000000 0.000000
	CHANNELS 6 Xposition Yposition Zposition Xrotation Yrotation Zrotation
	JOINT LeftUpLeg_virtual
	{
		OFFSET 0.000000 0.000000 0.000000
		CHANNELS 3 Xrotation Yrotation Zrotation
		JOINT LeftUpLeg
		{
			OFFSET 13.026900 -6.336304 -1.092800
			CHANNELS 3 Xrotation Yrotation Zrotation
			JOINT LeftLeg
			{
				OFFSET 0.524474 -46.096886 9.782700
				CHANNELS 3 Xrotation Yrotation Zrotation
				JOINT LeftFoot
				{
					OFFSET -0.524474 -53.427422 -12.948200
					CHANNELS 3 Xrotation Yrotation Zrotation
					JOINT LeftToeBase
					{
						OFFSET 0.192200 -14.009700 16.364100
						CHANNELS 3 Xrotation Yrotation Zrotation
						JOINT LeftToe_End
						{
							OFFSET -1.784700 -0.561700 9.474800
							CHANNELS 3 Xrotation Yrotation Zrotation
							End Site
							{
								OFFSET 0 0 0
							}
						}
					}
				}
			}
		}
	}
	JOINT RightUpLeg_virtual
	{
		OFFSET 0.000000 0.000000 0.000000
		CHANNELS 3 Xrotation Yrotation Zrotation
		JOINT RightUpLeg
		{
			OFFSET -12.883000 -6.336304 -1.092800
			CHANNELS 3 Xrotation Yrotation Zrotation
			JOINT RightLeg
			{
				OFFSET -0.524587 -46.096825 9.782800
				CHANNELS 3 Xrotation Yrotation Zrotation
				JOINT RightFoot
				{
					OFFSET 0.524587 -53.427383 -12.948300
					CHANNELS 3 Xrotation Yrotation Zrotation
					JOINT RightToeBase
					{
						OFFSET -0.192200 -14.009700 16.364100
						CHANNELS 3 Xrotation Yrotation Zrotation
						JOINT RightToe_End
						{
							OFFSET 1.784700 -0.561700 9.474800
							CHANNELS 3 Xrotation Yrotation Zrotation
							End Site
							{
								OFFSET 0 0 0
							}
						}
					}
				}
			}
		}
	}
	JOINT Spine_virtual
	{
		OFFSET 0.000000 0.000000 0.000000
		CHANNELS 3 Xrotation Yrotation Zrotation
		JOINT Spine
		{
			OFFSET 0.072000 7.257294 -0.789700
			CHANNELS 3 Xrotation Yrotation Zrotation
			JOINT Spine1
			{
				OFFSET 0.000000 12.508769 -0.658067
				CHANNELS 3 Xrotation Yrotation Zrotation
				JOINT Spine1_split
				{
					OFFSET 0.000000 12.508769 -0.658067
					CHANNELS 3 Xrotation Yrotation Zrotation
					JOINT Spine2
					{
						OFFSET 0.000000 12.508769 -0.658067
						CHANNELS 3 Xrotation Yrotation Zrotation
						JOINT Neck_virtual
						{
							OFFSET 0.000000 0.000000 0.000000
							CHANNELS 3 Xrotation Yrotation Zrotation
							JOINT Neck
							{
								OFFSET 0.000000 14.033295 7.520400
								CHANNELS 3 Xrotation Yrotation Zrotation
								JOINT Head
								{
									OFFSET 0.000000 8.198502 5.703100
									CHANNELS 3 Xrotation Yrotation Zrotation
									JOINT HeadTop_End
									{
										OFFSET 0.000000 17.760803 13.332701
										CHANNELS 3 Xrotation Yrotation Zrotation
										End Site
										{
											OFFSET 0 0 0
										}
									}
								}
							}
						}
						JOINT LeftShoulder_virtual
						{
							OFFSET 0.000000 0.000000 0.000000
							CHANNELS 3 Xrotation Yrotation Zrotation
							JOINT LeftShoulder
							{
								OFFSET 6.292450 5.785301 -0.669000
								CHANNELS 3 Xrotation Yrotation Zrotation
								JOINT LeftShoulder_split
								{
									OFFSET 6.292450 5.785301 -0.669000
									CHANNELS 3 Xrotation Yrotation Zrotation
									JOINT LeftArm
									{
										OFFSET 13.907140 -6.093903 1.965100
										CHANNELS 3 Xrotation Yrotation Zrotation
										JOINT LeftForeArm
										{
											OFFSET 34.140198 0.000000 0.000000
											CHANNELS 3 Xrotation Yrotation Zrotation
											JOINT LeftHand
											{
												OFFSET 40.960209 0.000000 0.000000
												CHANNELS 3 Xrotation Yrotation Zrotation
												End Site
												{
													OFFSET 0 0 0
												}
											}
										}
									}
								}
							}
						}
						JOINT RightShoulder_virtual
						{
							OFFSET 0.000000 0.000000 0.000000
							CHANNELS 3 Xrotation Yrotation Zrotation
							JOINT RightShoulder
							{
								OFFSET -6.292450 5.785301 -0.669000
								CHANNELS 3 Xrotation Yrotation Zrotation
								JOINT RightShoulder_split
								{
									OFFSET -6.292450 5.785301 -0.669000
									CHANNELS 3 Xrotation Yrotation Zrotation
									JOINT RightArm
									{
										OFFSET -13.907140 -6.093903 1.965100
										CHANNELS 3 Xrotation Yrotation Zrotation
										JOINT RightForeArm
										{
											OFFSET -34.140198 0.000000 0.000000
											CHANNELS 3 Xrotation Yrotation Zrotation
											JOINT RightHand
											{
												OFFSET -40.960209 0.000000 0.000000
												CHANNELS 3 Xrotation Yrotation Zrotation
												End Site
												{
													OFFSET 0 0 0
												}
											}
										}
									}
								}
							}
						}
					}
				}
			}
		}
	}
}
MOTION
Frames: 11
Frame Time: 0.03333333
-4.285304 73.208176 13.187958 0.000000 0.000000 0.000000 34.631132 -57.636736 30.706068 -66.837212 -5.079937 31.409311 85.438754 -16.504454 -2.945120 -24.854855 0.088442 -7.353039 -3.927344 -1.063254 0.423029 0.000000 0.000000 0.000000 38.609017 -62.367659 35.819062 -63.941922 -6.160459 -38.723351 82.787371 14.040974 1.729707 -35.870665 -3.857643 10.562572 -2.802514 0.818560 1.165658 0.000000 0.000000 0.000000 38.298653 -55.098357 31.707108 7.248168 -1.266834 -1.404442 4.214747 -2.936814 -2.705673 1.151159 0.488121 0.725960 0.000000 0.000000 0.000000 3.538715 -3.411790 -2.078834 -3.990041 14.328345 -6.869020 -34.638413 34.277106 5.007326 0.000000 0.000000 0.000000 3.682108 -3.430721 -2.409189 5.061268 -9.502039 -6.383276 -4.436185 -3.544324 0.898457 -59.421765 3.119887 -22.769137 20.018130 -21.902400 16.526362 0.000000 0.000000 0.000000 3.895002 -3.183728 -2.277059 5.850082 8.201210 13.423399 4.329325 4.288998 -1.085304 -10.144216 -3.790052 53.939223 -16.900091 40.295527 8.362715 0.000000 0.000000 0.000000 
-4.000437 68.931854 12.957375 0.000000 0.000000 0.000000 36.613693 -56.901821 32.074077 -70.035250 -9.253150 32.986754 89.922207 -18.893126 -4.284175 -26.058463 -0.511947 -6.904665 -4.266901 -1.112797 0.266916 0.000000 0.000000 0.000000 40.557598 -61.404712 37.076951 -68.259633 -4.569862 -42.043247 87.133249 16.040684 2.459931 -36.628798 -2.624868 9.308079 -3.293467 0.780431 1.378108 0.000000 0.000000 0.000000 40.146855 -54.524427 32.875329 6.724887 -1.258134 -1.192822 4.418090 -2.738545 -2.641732 1.186715 0.337826 0.719365 0.000000 0.000000 0.000000 3.788513 -3.236768 -2.029143 -2.738996 14.877393 -7.931758 -35.066919 33.038861 4.321023 0.000000 0.000000 0.000000 3.902610 -3.251724 -2.392332 5.418576 -9.799336 -6.309302 -4.156768 -3.457914 1.123227 -60.736023 1.789612 -22.911089 21.063388 -21.571021 16.541289 0.000000 0.000000 0.000000 4.136363 -2.981071 -2.209260 6.198466 8.379381 13.732781 4.404736 4.252988 -1.210044 -9.775649 -2.143826 52.224429 -17.518366 41.991692 9.039535 0.000000 0.000000 0.000000 
-3.711580 64.697594 12.805595 0.000000 0.000000 0.000000 38.064409 -56.209800 32.934011 -72.881226 -13.655663 34.757945 93.940407 -21.521702 -5.477306 -26.757830 -1.169243 -6.637557 -4.886762 -1.108707 0.110120 0.000000 0.000000 0.000000 41.900072 -60.454762 37.708303 -72.462904 -2.201741 -45.478231 91.330653 17.913542 3.475864 -36.534747 -1.743945 8.092985 -3.876872 0.690636 1.523487 0.000000 0.000000 0.000000 41.351120 -54.064868 33.539979 6.321770 -1.217103 -1.027938 4.615214 -2.496596 -2.574192 1.111534 0.160311 0.797861 0.000000 0.000000 0.000000 4.053062 -3.001135 -1.980755 -1.290966 15.389560 -8.971535 -34.979130 32.043378 3.492430 0.000000 0.000000 0.000000 4.148737 -3.017629 -2.369780 5.788993 -9.878396 -6.263847 -3.881606 -3.367440 1.236576 -61.826374 0.657727 -23.242509 22.221510 -21.273411 16.431437 0.000000 0.000000 0.000000 4.389050 -2.730845 -2.150419 6.572610 8.490349 14.061742 4.494589 4.199532 -1.244365 -9.173365 -0.667600 50.241454 -17.810966 43.020001 9.559107 0.000000 0.000000 0.000000 
-3.437474 60.707657 12.640438 0.000000 0.000000 0.000000 39.000766 -55.506560 33.328144 -75.356043 -17.992482 36.752920 97.304569 -24.175134 -6.554370 -26.827511 -1.844737 -6.493121 -5.816508 -1.065695 -0.015622 0.000000 0.000000 0.000000 42.618058 -59.517681 37.796201 -76.409190 0.890489 -48.994576 95.332345 19.743263 4.639136 -35.312085 -1.230832 7.190865 -4.856382 0.563627 1.630097 0.000000 0.000000 0.000000 42.021311 -53.649176 33.799775 6.001408 -1.141307 -0.918519 4.807106 -2.252339 -2.539106 0.877490 -0.167232 0.898262 0.000000 0.000000 0.000000 4.314084 -2.738954 -1.959506 0.335136 15.903190 -9.967092 -34.533423 31.224107 2.671648 0.000000 0.000000 0.000000 4.411345 -2.766298 -2.365343 6.174208 -9.713585 -6.238763 -3.598514 -3.277776 1.179853 -62.725944 -0.294204 -23.688063 23.498516 -20.927906 16.232040 0.000000 0.000000 0.000000 4.633805 -2.477028 -2.128361 6.976213 8.590939 14.519874 4.643816 4.153728 -1.173365 -8.526555 0.415557 48.133508 -17.731603 43.565286 9.895121 0.000000 0.000000 0.000000 
-3.239136 57.090710 12.609325 0.000000 0.000000 0.000000 39.459864 -54.724623 33.319934 -77.504588 -22.048307 38.857838 99.856621 -26.642311 -7.574151 -26.337413 -2.473596 -6.367125 -6.822256 -1.002377 -0.123968 0.000000 0.000000 0.000000 42.826382 -58.490229 37.445221 -79.898685 4.632459 -52.423345 98.973730 21.591637 5.774706 -33.021714 -1.014575 6.635054 -6.035508 0.432108 1.745000 0.000000 0.000000 0.000000 42.232016 -53.212839 33.716273 5.709741 -1.041841 -0.847144 4.998840 -2.040227 -2.540719 0.704070 -0.571870 1.027533 0.000000 0.000000 0.000000 4.563613 -2.496002 -1.970232 2.071594 16.446771 -10.923066 -33.942034 30.512743 1.988986 0.000000 0.000000 0.000000 4.688215 -2.535068 -2.377130 6.586566 -9.348182 -6.236297 -3.310604 -3.237378 0.921783 -63.410759 -1.123854 -24.217503 24.925992 -20.636708 16.053151 0.000000 0.000000 0.000000 4.881304 -2.261294 -2.158908 7.407761 8.750073 15.178239 4.817368 4.154738 -1.073790 -7.994980 1.056924 45.921974 -17.291034 43.857031 10.063669 0.000000 0.000000 0.000000 
-3.129981 54.002590 12.572292 0.000000 0.000000 0.000000 39.551467 -53.857558 33.027585 -79.374974 -25.680774 40.919120 101.562386 -28.786758 -8.541145 -25.328088 -3.004594 -6.428786 -7.710698 -0.919146 -0.223811 0.000000 0.000000 0.000000 42.627279 -57.353187 36.757927 -82.736861 8.788413 -55.590998 102.150684 23.440236 6.774514 -30.081256 -0.981656 6.312483 -7.033217 0.321035 1.934294 0.000000 0.000000 0.000000 42.219933 -52.745231 33.464686 5.433270 -0.930820 -0.775239 5.204832 -1.890153 -2.567421 0.633873 -1.024046 1.199991 0.000000 0.000000 0.000000 4.810547 -2.304073 -2.002871 3.853077 17.049219 -11.861523 -33.399352 29.953009 1.503411 0.000000 0.000000 0.000000 4.993578 -2.354439 -2.397253 7.022361 -8.825812 -6.275389 -3.033557 -3.323398 0.576496 -63.941574 -1.840026 -24.799997 26.530622 -20.483715 15.987567 0.000000 0.000000 0.000000 5.145360 -2.109518 -2.222357 7.856861 9.047452 16.051670 4.925581 4.179324 -1.017542 -7.607781 1.374047 43.617151 -16.501764 43.991090 10.042641 0.000000 0.000000 0.000000 
-3.128185 51.488182 12.510010 0.000000 0.000000 0.000000 39.288324 -52.857260 32.464821 -81.123359 -28.793984 42.683853 102.485308 -30.538425 -9.449691 -23.808871 -3.419986 -6.789144 -8.443184 -0.815605 -0.331109 0.000000 0.000000 0.000000 41.934336 -56.002398 35.676062 -84.830922 13.044669 -58.436141 104.826349 25.209571 7.565264 -26.768328 -1.017801 6.140401 -7.871236 0.251672 2.205745 0.000000 0.000000 0.000000 42.105032 -52.210926 33.113034 5.149292 -0.834383 -0.670350 5.441106 -1.798766 -2.595049 0.702050 -1.414101 1.260883 0.000000 0.000000 0.000000 5.066167 -2.175447 -2.037529 5.557083 17.692297 -12.788326 -33.063665 29.555482 1.242265 0.000000 0.000000 0.000000 5.310735 -2.233910 -2.409975 7.466909 -8.226811 -6.394682 -2.868060 -3.432274 0.219000 -64.442350 -2.512239 -25.428598 28.305636 -20.489077 16.089144 0.000000 0.000000 0.000000 5.420247 -2.023770 -2.281710 8.303183 9.530014 17.081483 4.967251 4.253351 -1.044477 -7.297331 1.519419 41.263563 -15.405784 43.974523 9.800737 0.000000 0.000000 0.000000 
-3.171006 49.545380 12.359428 0.000000 0.000000 0.000000 38.656306 -51.746954 31.661441 -82.861027 -31.373921 43.849927 102.784136 -31.887554 -10.172722 -21.909736 -3.757241 -7.515944 -9.146218 -0.696492 -0.432703 0.000000 0.000000 0.000000 40.916566 -54.516101 34.390563 -86.251718 17.102580 -60.867702 107.063973 26.810383 8.089609 -23.278072 -1.079928 6.243565 -8.753354 0.202931 2.544726 0.000000 0.000000 0.000000 41.971311 -51.599904 32.727610 4.879122 -0.788520 -0.526229 5.723868 -1.747052 -2.599034 0.810230 -1.610815 1.250100 0.000000 0.000000 0.000000 5.343166 -2.100907 -2.049287 7.044691 18.333445 -13.714492 -32.968825 29.280061 1.179785 0.000000 0.000000 0.000000 5.637132 -2.160647 -2.395022 7.903427 -7.573799 -6.591968 -2.795096 -3.425364 -0.061067 -64.893238 -3.206200 -26.104133 30.185359 -20.696195 16.389073 0.000000 0.000000 0.000000 5.699988 -1.980943 -2.305411 8.715241 10.205662 18.139693 4.887141 4.350495 -1.143902 -6.850678 1.657971 38.842675 -14.053966 43.610843 9.311481 0.000000 0.000000 0.000000 
-3.244582 48.116680 12.053574 0.000000 0.000000 0.000000 37.850125 -50.623501 30.799034 -84.551977 -33.500227 44.279198 102.732711 -32.800798 -10.629776 -19.883734 -3.987665 -8.490572 -9.849268 -0.564825 -0.564029 0.000000 0.000000 0.000000 39.762978 -53.007780 33.117668 -87.093272 20.621834 -62.895975 108.856659 28.225764 8.281741 -19.954350 -1.093275 6.817196 -9.793216 0.162823 2.919440 0.000000 0.000000 0.000000 41.794208 -50.962808 32.317901 4.642577 -0.802482 -0.352688 6.065891 -1.715676 -2.566491 0.796574 -1.580194 1.143083 0.000000 0.000000 0.000000 5.656086 -2.059632 -2.030166 8.214944 18.926924 -14.606696 -33.103738 29.098160 1.262142 0.000000 0.000000 0.000000 5.981185 -2.115661 -2.350779 8.301451 -6.936350 -6.843355 -2.827260 -3.296263 -0.259030 -65.315262 -3.983079 -26.837876 32.043918 -20.927198 16.818815 0.000000 0.000000 0.000000 5.981584 -1.951801 -2.271897 9.055636 11.047459 19.138407 4.872745 4.459746 -1.320598 -6.175056 1.854654 36.500142 -12.605238 42.751899 8.646940 0.000000 0.000000 0.000000 
-3.274575 47.097229 11.755669 0.000000 0.000000 0.000000 37.037920 -49.586156 30.024644 -86.040733 -35.157176 44.080388 102.569511 -33.202195 -10.865839 -18.107170 -4.051784 -9.471048 -10.389608 -0.426906 -0.762953 0.000000 0.000000 0.000000 38.688965 -51.671341 32.037682 -87.438880 23.296235 -64.471624 110.214583 29.436862 8.165637 -17.251238 -1.070793 7.742615 -10.822690 0.126551 3.309953 0.000000 0.000000 0.000000 41.624617 -50.425955 31.944713 4.435023 -0.861421 -0.171109 6.441428 -1.684547 -2.501165 0.708217 -1.170539 1.003580 0.000000 0.000000 0.000000 6.002011 -2.031343 -1.987789 9.017956 19.468891 -15.411340 -33.440613 28.935475 1.418869 0.000000 0.000000 0.000000 6.342740 -2.079923 -2.280158 8.648397 -6.398347 -7.140570 -2.829781 -3.097616 -0.420387 -65.616350 -4.888824 -27.699868 33.712994 -21.064957 17.274100 0.000000 0.000000 0.000000 6.276630 -1.911812 -2.184354 9.295847 11.972791 20.010426 4.835974 4.539694 -1.523265 -5.336098 2.065881 34.342031 -11.250028 41.365323 7.930247 0.000000 0.000000 0.000000 
-3.193819 46.401062 11.418041 0.000000 0.000000 0.000000 36.261563 -48.723899 29.387575 -87.086681 -36.334315 43.523581 102.506475 -33.096180 -10.968546 -16.763267 -3.982894 -10.265656 -10.585513 -0.295323 -1.058572 0.000000 0.000000 0.000000 37.753167 -50.555202 31.171611 -87.422665 25.003065 -65.608543 111.162142 30.393587 7.902589 -15.397849 -1.042881 8.717535 -11.606131 0.105038 3.687878 0.000000 0.000000 0.000000 41.420436 -50.067479 31.621990 4.264976 -0.941317 -0.008813 6.815756 -1.644561 -2.420782 0.643667 -0.580823 0.882191 0.000000 0.000000 0.000000 6.356035 -1.994585 -1.931437 9.516548 19.920727 -16.077096 -33.894042 28.766954 1.568210 0.000000 0.000000 0.000000 6.713750 -2.039333 -2.199279 8.925427 -5.991755 -7.468750 -2.717667 -2.947694 -0.607106 -65.703421 -5.839645 -28.723951 35.078448 -21.117823 17.692246 0.000000 0.000000 0.000000 6.572217 -1.843567 -2.064819 9.436729 12.849078 20.708544 4.741027 4.552793 -1.670798 -4.445652 2.178475 32.444761 -10.131636 39.491283 7.260874 0.000000 0.000000 0.000000 
